<?xml version="1.0" standalone="no"?>
<!DOCTYPE svg PUBLIC "-//W3C//DTD SVG 20010904//EN"
 "http://www.w3.org/TR/2001/REC-SVG-20010904/DTD/svg10.dtd">
<svg version="1.0" xmlns="http://www.w3.org/2000/svg"
 width="312.000000pt" height="360.000000pt" viewBox="0 0 312.000000 360.000000"
 preserveAspectRatio="xMidYMid meet">

<g transform="translate(0.000000,360.000000) scale(0.100000,-0.100000)"
fill="#000000" stroke="none">
<path d="M1420 3518 c-74 -44 -424 -246 -778 -450 l-642 -371 0 -897 0 -897
673 -388 c369 -214 721 -417 780 -451 l108 -62 147 85 c81 47 266 154 412 238
146 84 429 247 630 363 l365 211 3 899 2 899 -107 63 c-60 34 -272 157 -473
273 -472 272 -630 363 -823 475 -87 51 -159 92 -160 91 -1 0 -63 -37 -137 -81z
m-73 -210 c-3 -8 -6 -5 -6 6 -1 11 2 17 5 13 3 -3 4 -12 1 -19z m739 -235
c-11 -11 -19 6 -11 24 8 17 8 17 12 0 3 -10 2 -21 -1 -24z m-134 -381 l3 -137
38 -3 c24 -2 37 -8 37 -18 0 -15 -65 -20 -87 -6 -23 15 -33 65 -33 167 l0 104
-27 3 c-15 2 -29 10 -31 18 -2 12 7 14 47 12 l50 -4 3 -136z m-1242 113 c0
-16 -6 -25 -15 -25 -9 0 -15 9 -15 25 0 16 6 25 15 25 9 0 15 -9 15 -25z m320
-130 c0 -148 -1 -155 -20 -155 -11 0 -20 4 -20 10 0 5 -13 2 -29 -7 -23 -14
-33 -15 -57 -5 -38 16 -54 42 -60 100 -10 89 48 151 116 125 l30 -11 0 49 c0
42 3 49 20 49 19 0 20 -7 20 -155z m-590 100 c0 -34 1 -35 40 -35 22 0 40 -4
40 -10 0 -5 -18 -10 -40 -10 l-41 0 3 -82 3 -83 38 -3 c25 -2 37 -8 37 -18 0
-12 -11 -14 -47 -12 -59 4 -73 26 -73 120 0 65 -1 67 -27 70 -39 4 -42 28 -4
28 29 0 31 3 31 35 0 28 4 35 20 35 16 0 20 -7 20 -35z m1066 -48 c38 -33 46
-125 15 -174 -25 -41 -65 -52 -103 -30 l-28 16 0 -54 c0 -42 -4 -55 -15 -55
-13 0 -15 24 -15 155 0 131 2 155 15 155 8 0 15 -5 15 -12 0 -8 6 -6 17 5 24
24 67 21 99 -6z m235 13 c45 -25 64 -122 34 -179 -27 -54 -111 -65 -151 -20
-12 14 -19 41 -22 84 -4 61 -3 66 26 95 32 32 76 39 113 20z m515 -13 c25 -22
27 -29 29 -115 2 -84 1 -92 -16 -92 -11 0 -19 7 -19 18 0 10 -3 13 -8 6 -10
-16 -48 -34 -70 -34 -35 0 -72 38 -72 74 0 46 29 68 95 74 59 5 68 17 38 47
-13 14 -28 16 -65 12 -37 -5 -48 -3 -48 8 0 32 99 33 136 2z m278 17 c9 -3 16
-15 16 -25 0 -16 -3 -18 -19 -9 -30 16 -50 12 -76 -15 -22 -21 -25 -33 -25
-100 0 -68 -2 -75 -20 -75 -19 0 -20 7 -20 110 0 103 1 110 20 110 12 0 20 -7
20 -16 0 -13 5 -12 26 5 27 21 50 26 78 15z m214 0 c12 -4 22 -12 22 -20 0
-10 -12 -12 -48 -7 -37 4 -51 2 -61 -11 -20 -24 -6 -44 41 -56 74 -20 97 -59
63 -107 -29 -41 -146 -40 -153 2 -3 14 0 16 14 10 42 -16 90 -17 103 -2 22 28
9 50 -38 64 -58 17 -71 29 -71 69 0 53 54 77 128 58z m-2038 -98 l0 -95 37 -3
c20 -2 38 -9 41 -15 3 -10 -20 -13 -92 -13 -79 0 -96 3 -96 15 0 11 11 15 40
15 l41 0 -3 83 c-2 56 -7 82 -15 83 -7 1 -20 2 -28 3 -8 0 -15 6 -15 11 0 6
20 10 45 10 l45 0 0 -94z m450 8 c18 -48 35 -81 39 -75 4 6 18 45 32 86 18 55
29 75 42 75 9 0 17 -4 17 -10 0 -24 -102 -269 -118 -284 -10 -9 -31 -16 -45
-16 -36 0 -36 28 0 32 40 4 52 45 31 101 -9 23 -28 72 -42 110 -24 63 -25 67
-7 67 14 0 26 -21 51 -86z m-890 -65 c0 -3 -7 -12 -16 -20 -13 -10 -17 -10
-25 2 -22 35 3 73 29 41 6 -9 12 -19 12 -23z m2230 -283 c0 -3 -4 -8 -10 -11
-5 -3 -10 -1 -10 4 0 6 5 11 10 11 6 0 10 -2 10 -4z m-701 -62 c13 -21 41 -44
78 -63 36 -18 94 -65 153 -123 114 -111 143 -133 201 -148 84 -23 111 -44 206
-163 45 -56 85 -93 168 -155 111 -82 254 -213 285 -261 16 -25 48 -73 71 -106
22 -33 56 -90 75 -127 28 -56 34 -78 34 -132 l0 -65 -35 -12 c-19 -7 -35 -17
-35 -23 0 -5 -10 -1 -22 10 -12 10 -18 13 -14 7 4 -7 2 -21 -4 -30 -8 -14 -10
-4 -7 44 2 35 0 63 -4 63 -3 0 -12 15 -19 33 -32 87 -45 109 -76 128 -45 27
-74 66 -74 97 0 42 -47 92 -116 123 -35 16 -68 37 -73 47 -6 10 -36 38 -68 62
-65 49 -92 78 -93 99 0 13 -24 46 -92 124 -35 39 -41 42 -89 42 -34 0 -54 -5
-57 -13 -2 -7 -15 -26 -28 -42 -19 -22 -25 -43 -29 -97 -2 -37 -8 -95 -13
-128 -6 -39 -6 -64 1 -73 7 -8 5 -18 -5 -30 -9 -9 -18 -42 -21 -72 -4 -30 -9
-64 -11 -75 -2 -11 -5 -49 -6 -85 -1 -43 -4 -58 -9 -45 -7 17 -9 15 -15 -15
-9 -46 -16 -100 -17 -125 -2 -67 -12 -135 -20 -135 -5 0 -9 17 -9 38 0 27 -3
33 -10 22 -14 -22 -12 -86 5 -127 18 -44 19 -46 1 -40 -26 10 -50 -33 -61
-113 -2 -14 -13 -47 -24 -73 -12 -27 -21 -57 -21 -67 0 -29 39 -50 91 -50 43
0 47 2 41 22 -5 20 -3 21 52 15 32 -3 61 -8 64 -12 3 -3 -3 -14 -14 -25 -17
-17 -497 -298 -549 -322 -21 -9 -63 14 -811 446 -266 154 -256 145 -164 146
72 0 284 38 455 81 219 55 364 74 640 84 83 4 153 9 157 13 4 4 8 167 10 362
l3 355 -37 75 c-44 90 -87 140 -148 170 -25 12 -71 38 -104 57 -36 23 -72 36
-97 37 -21 1 -44 7 -51 14 -7 7 -20 12 -30 12 -14 0 -17 5 -13 23 4 15 -3 31
-20 51 -14 16 -25 33 -25 37 0 9 43 39 85 59 42 20 64 40 59 53 -2 7 0 17 4
23 10 16 68 44 90 44 10 0 27 9 37 20 10 11 24 20 30 20 7 0 29 13 49 29 44
35 68 31 95 -15z m-829 -458 c0 -3 -4 -8 -10 -11 -5 -3 -10 -1 -10 4 0 6 5 11
10 11 6 0 10 -2 10 -4z m270 -231 c0 -8 -4 -15 -10 -15 -5 0 -10 7 -10 15 0 8
5 15 10 15 6 0 10 -7 10 -15z m1335 -422 c39 -13 71 -38 152 -119 57 -56 103
-109 103 -118 0 -43 -64 -29 -87 19 -9 19 -21 35 -26 35 -5 0 -32 21 -60 46
-40 36 -57 45 -81 42 -17 -2 -34 -10 -38 -18 -5 -12 -7 -12 -7 3 -1 21 -31 23
-31 2 0 -9 -7 -18 -15 -21 -8 -4 -15 -12 -15 -19 0 -7 -9 -15 -20 -18 -13 -3
-20 -13 -20 -29 1 -21 2 -22 14 -5 18 24 26 21 26 -8 0 -14 -6 -28 -14 -31 -8
-3 -12 -13 -9 -25 4 -12 -2 -27 -15 -39 -18 -17 -20 -30 -18 -160 1 -154 0
-158 -57 -158 -37 1 -57 40 -57 113 0 31 -4 65 -10 75 -13 24 5 219 26 280 27
79 60 126 106 149 52 25 89 26 153 4z m-318 -375 c6 -7 13 -53 16 -102 4 -59
11 -94 22 -106 8 -9 15 -21 15 -27 0 -6 7 -13 15 -17 8 -3 15 -11 15 -18 0
-10 -2 -10 -9 0 -6 10 -10 9 -14 -7 -5 -19 -12 -21 -94 -21 -48 0 -109 -7
-135 -15 -27 -8 -48 -13 -48 -11 0 2 12 34 26 72 14 38 39 108 54 156 16 48
31 92 35 98 9 14 91 12 102 -2z"/>
<path d="M900 2705 c-19 -23 -23 -105 -8 -135 18 -34 61 -39 82 -8 20 29 21
107 0 136 -18 25 -56 29 -74 7z"/>
<path d="M1412 2708 c-18 -23 -24 -85 -12 -122 14 -44 51 -58 80 -31 28 25 28
124 2 148 -22 20 -55 22 -70 5z"/>
<path d="M1656 2704 c-17 -16 -20 -37 -17 -94 5 -64 51 -90 91 -50 25 25 27
105 4 138 -18 26 -56 29 -78 6z"/>
<path d="M2146 2609 c-23 -34 -3 -69 41 -69 25 0 63 43 63 71 0 29 -83 27
-104 -2z"/>
<path d="M1715 2169 c-7 -57 -9 -61 -31 -56 -13 2 -24 1 -24 -4 0 -4 -6 -14
-12 -21 -22 -22 -48 -87 -48 -117 0 -21 6 -30 22 -34 20 -6 20 -7 5 -31 -14
-21 -14 -25 -1 -30 8 -3 23 3 34 14 19 19 23 19 56 5 45 -18 41 -19 47 5 3 12
14 20 27 20 19 0 21 4 15 30 -6 26 -4 30 15 30 18 0 21 -4 16 -24 -7 -27 1
-56 15 -56 5 0 9 9 9 20 0 11 5 20 11 20 6 0 3 7 -5 16 -22 21 -20 34 4 34 11
0 20 -7 20 -15 0 -8 5 -15 10 -15 6 0 10 5 10 10 0 13 -49 60 -61 60 -5 0 -9
6 -9 14 0 8 -7 16 -15 20 -8 3 -15 17 -15 31 0 14 -4 25 -10 25 -5 0 -10 9
-10 20 0 11 -6 20 -14 20 -9 0 -12 7 -9 19 4 17 -20 51 -37 51 -4 0 -11 -27
-15 -61z m25 -79 c0 -5 -2 -10 -4 -10 -3 0 -8 5 -11 10 -3 6 -1 10 4 10 6 0
11 -4 11 -10z m77 -82 c-3 -7 -5 -2 -5 12 0 14 2 19 5 13 2 -7 2 -19 0 -25z"/>
<path d="M1920 1969 c0 -5 5 -7 10 -4 6 3 10 8 10 11 0 2 -4 4 -10 4 -5 0 -10
-5 -10 -11z"/>
<path d="M1924 1927 c0 -14 7 -23 18 -23 9 0 14 4 12 8 -3 4 3 8 12 8 24 0 2
22 -25 27 -14 2 -19 -3 -17 -20z"/>
</g>
</svg>
